<?xml version="1.0" standalone="no"?>
<!DOCTYPE svg PUBLIC "-//W3C//DTD SVG 20010904//EN"
 "http://www.w3.org/TR/2001/REC-SVG-20010904/DTD/svg10.dtd">
<svg version="1.0" xmlns="http://www.w3.org/2000/svg"
 width="1889.000000pt" height="1368.000000pt" viewBox="0 0 1889.000000 1368.000000"
 preserveAspectRatio="xMidYMid meet">

<g transform="translate(0.000000,1368.000000) scale(0.100000,-0.100000)"
fill="#000000" stroke="none">
<path d="M11530 12084 c0 -15 61 -43 115 -54 43 -8 89 -23 218 -72 16 -6 47
-21 70 -34 23 -13 53 -29 67 -36 39 -20 141 -90 180 -123 252 -216 379 -491
380 -822 0 -100 -23 -278 -46 -358 -38 -129 -49 -163 -67 -210 -33 -86 -101
-238 -129 -290 -15 -27 -33 -61 -40 -75 -52 -104 -298 -462 -382 -553 -11 -13
-43 -50 -71 -82 -155 -183 -431 -455 -600 -592 -33 -26 -64 -53 -70 -59 -13
-15 -238 -191 -290 -227 -22 -16 -67 -48 -100 -73 -33 -24 -67 -48 -75 -52
-14 -6 -243 -156 -404 -264 -32 -21 -65 -38 -74 -36 -39 8 -95 161 -138 378
-8 41 -19 98 -25 125 -13 66 -24 284 -15 320 l7 28 91 -6 c53 -3 99 -2 110 4
20 11 23 60 9 139 -25 131 -54 294 -65 362 -20 116 -12 112 -201 105 -111 -3
-189 -11 -254 -26 -159 -36 -294 -88 -305 -116 -18 -47 7 -63 62 -39 62 26
174 61 222 69 25 4 70 13 100 21 30 8 103 14 167 14 93 0 113 -3 113 -15 0
-16 -20 -22 -95 -28 -124 -11 -394 -66 -418 -85 -7 -6 -29 -13 -50 -17 -41 -8
-101 -51 -91 -66 8 -14 50 -10 64 6 7 8 22 15 34 15 11 0 41 9 65 20 24 11 57
20 75 20 17 0 44 7 60 15 28 15 220 38 321 39 43 1 50 -2 53 -20 3 -19 -3 -22
-50 -27 -29 -4 -76 -7 -104 -7 -28 0 -73 -6 -100 -14 -27 -8 -74 -17 -104 -21
-30 -4 -67 -14 -82 -21 -15 -8 -37 -14 -50 -14 -13 -1 -41 -9 -63 -20 -22 -11
-47 -19 -56 -20 -38 0 -43 -25 -24 -128 9 -53 22 -127 29 -164 11 -66 36 -108
63 -108 8 0 34 11 58 24 108 61 233 94 249 67 4 -5 -13 -16 -36 -23 -54 -18
-66 -38 -50 -80 49 -123 93 -342 117 -580 7 -63 6 -68 -13 -68 -10 0 -41 17
-68 39 -70 55 -194 119 -261 134 -49 12 -69 12 -128 0 -38 -8 -74 -19 -79 -24
-6 -5 -23 -9 -38 -9 -21 0 -28 5 -28 20 0 11 -12 30 -27 43 -14 12 -56 48 -92
80 -36 32 -79 64 -96 72 -16 7 -46 33 -65 58 -19 25 -44 51 -55 57 -70 38 -64
34 -190 157 -22 22 -53 57 -70 78 -64 82 -142 116 -176 78 -9 -10 -24 -23 -34
-28 -17 -10 -17 -13 3 -51 26 -52 79 -112 115 -130 15 -8 33 -26 39 -39 6 -14
26 -34 45 -45 21 -12 35 -30 39 -48 7 -32 54 -87 83 -97 11 -3 31 -26 46 -50
14 -24 31 -48 38 -52 7 -4 20 -20 29 -34 9 -14 36 -48 60 -75 140 -158 151
-165 168 -120 5 13 14 27 19 31 29 17 29 18 -557 607 -66 67 -84 90 -75 99 9
9 91 -66 340 -315 337 -336 333 -333 386 -311 12 5 17 3 17 -9 0 -9 -4 -16 -9
-16 -20 0 -131 -119 -131 -140 0 -12 -8 -35 -17 -53 -12 -23 -17 -57 -18 -117
0 -80 2 -90 42 -170 24 -47 53 -100 65 -119 21 -33 21 -34 3 -47 -10 -8 -39
-21 -64 -30 -25 -8 -59 -21 -76 -28 -48 -21 -134 -52 -210 -76 -38 -13 -86
-28 -105 -35 -104 -37 -412 -119 -575 -153 -320 -66 -509 -91 -766 -100 -344
-13 -583 6 -829 64 -93 22 -143 38 -280 90 -42 16 -173 82 -215 109 -54 34
-159 119 -200 160 -64 65 -165 194 -165 211 0 4 -6 15 -14 23 -25 28 -86 192
-108 291 -43 190 -23 468 48 665 14 39 30 88 36 110 6 22 15 44 19 49 5 6 9
17 9 24 0 18 -47 -30 -61 -62 -5 -11 -13 -28 -18 -36 -14 -22 -80 -166 -96
-208 -7 -20 -23 -62 -35 -92 -69 -181 -104 -325 -125 -515 -16 -137 -15 -172
6 -340 45 -352 245 -635 594 -842 214 -127 553 -224 890 -254 163 -14 494 -14
688 1 81 6 153 7 161 3 8 -4 56 -48 108 -98 52 -49 117 -109 144 -131 l49 -41
-120 -239 c-66 -132 -128 -251 -138 -265 -11 -16 -17 -35 -13 -46 6 -20 131
-105 276 -188 47 -27 93 -55 102 -63 21 -18 54 -8 70 21 6 12 33 51 60 87 27
36 81 108 121 161 40 52 81 108 92 123 40 57 67 86 78 86 7 0 25 -7 42 -16 36
-19 149 -64 159 -64 5 0 22 -6 39 -14 68 -30 277 -85 397 -106 80 -13 107 -26
114 -54 2 -11 10 -144 17 -294 12 -265 13 -274 35 -288 32 -22 454 -33 470
-13 6 8 16 64 23 124 53 481 52 471 75 487 6 4 25 8 42 8 113 0 451 79 626
146 42 16 73 22 82 17 12 -7 106 -138 106 -148 0 -2 43 -67 95 -145 52 -78 95
-144 95 -146 0 -12 45 -64 56 -64 15 0 235 113 333 171 96 58 100 64 72 125
-12 27 -28 63 -36 79 -7 17 -20 46 -28 65 -80 187 -112 260 -128 291 -20 39
-25 89 -10 89 6 0 56 37 113 82 116 92 285 255 379 365 59 70 83 84 105 64 5
-5 121 -66 258 -135 194 -98 252 -123 263 -115 17 15 89 118 133 192 19 32 45
75 57 95 13 20 27 47 32 59 5 11 15 24 20 28 31 18 2 47 -174 175 -42 30 -121
90 -176 133 -56 42 -105 77 -109 77 -20 0 -20 42 0 82 22 44 28 59 73 183 45
126 100 338 112 437 4 32 14 63 22 70 16 13 89 18 430 34 89 4 166 10 172 13
13 8 31 228 31 372 0 96 -2 109 -19 118 -10 6 -87 17 -171 26 -83 8 -179 19
-213 24 -34 5 -95 13 -135 16 -39 4 -75 11 -78 16 -3 5 -10 38 -15 72 -9 64
-37 233 -45 277 -4 20 10 43 68 114 268 329 455 629 575 926 110 272 153 474
153 715 0 197 -27 336 -96 495 -91 208 -269 400 -499 537 -40 24 -186 93 -227
108 -118 42 -169 59 -238 76 -111 29 -264 59 -355 69 -44 5 -95 12 -112 16
-18 3 -33 2 -33 -2z m-1609 -2920 c87 -60 72 -170 -29 -205 -46 -16 -96 4
-127 49 -14 20 -25 44 -25 54 0 21 31 88 40 88 4 0 17 9 30 20 31 27 66 25
111 -6z m1403 -1032 c5 -8 -2 -33 -48 -177 -33 -104 -51 -153 -70 -190 -9 -16
-16 -33 -16 -36 0 -4 -20 -42 -46 -85 -64 -112 -66 -115 -99 -159 -17 -22 -39
-52 -48 -68 -28 -44 -216 -232 -282 -281 -33 -25 -64 -49 -70 -53 -56 -44
-190 -120 -285 -162 -183 -81 -313 -115 -525 -137 -146 -15 -169 -15 -309 0
-165 19 -426 78 -473 109 -24 15 -15 46 15 53 34 8 120 39 372 138 66 26 210
87 309 133 81 37 467 229 529 264 185 103 324 184 407 237 39 25 90 57 115 73
25 16 50 33 57 39 7 5 16 10 20 11 4 0 28 16 53 35 25 18 54 38 65 44 11 5 38
23 60 39 22 16 69 50 105 75 36 25 79 59 95 76 28 29 58 39 69 22z m-1800 -41
c3 -5 -5 -12 -19 -15 -33 -8 -155 -124 -155 -146 0 -10 -7 -24 -16 -31 -15
-12 -16 -10 -9 21 4 19 13 42 21 51 8 8 14 20 14 25 0 14 47 54 95 80 44 25
61 28 69 15z m246 -40 c42 -27 82 -56 89 -65 12 -14 11 -16 -7 -16 -11 0 -25
7 -32 15 -7 8 -18 15 -26 15 -7 0 -17 6 -21 13 -9 13 -54 41 -95 58 -16 6 -28
15 -28 20 0 22 51 5 120 -40z m-420 -327 c0 -7 7 -20 16 -28 8 -9 13 -20 9
-25 -11 -19 -35 1 -45 37 -13 50 -13 57 5 42 8 -7 15 -18 15 -26z"/>
<path d="M9538 11729 c-17 -14 -17 -15 -63 -448 -10 -89 -20 -140 -30 -151
-11 -12 -47 -21 -118 -29 -115 -14 -267 -43 -342 -66 -27 -8 -87 -26 -133 -40
-46 -14 -96 -32 -113 -40 -54 -29 -38 -47 -292 341 -47 71 -92 136 -101 143
-14 11 -33 5 -131 -45 -162 -82 -165 -84 -210 -113 -22 -14 -52 -31 -67 -38
-31 -14 -38 -55 -14 -82 7 -9 26 -47 41 -85 15 -38 31 -77 35 -85 5 -9 39 -85
75 -170 43 -100 65 -161 61 -175 -3 -11 -24 -32 -45 -45 -22 -13 -51 -34 -65
-45 -13 -12 -44 -36 -68 -55 -67 -54 -346 -337 -352 -359 -8 -25 -44 -35 -73
-19 -13 7 -124 63 -248 125 -124 63 -228 118 -231 123 -15 25 -44 5 -87 -58
-105 -159 -180 -283 -197 -327 -10 -27 -4 -37 40 -66 13 -8 31 -22 39 -30 9
-8 37 -28 61 -45 24 -16 52 -37 61 -45 8 -8 26 -22 38 -30 13 -8 47 -33 76
-55 29 -22 65 -49 81 -60 51 -36 84 -67 84 -77 0 -5 -11 -33 -24 -61 -45 -98
-64 -145 -71 -178 -4 -19 -11 -38 -15 -44 -8 -11 -34 -99 -51 -175 -6 -25 -16
-67 -24 -95 -8 -27 -17 -76 -21 -109 -11 -95 1 -91 -325 -105 -219 -9 -287
-16 -298 -26 -17 -16 -29 -164 -30 -352 -1 -128 6 -143 68 -143 21 0 63 -5 92
-10 30 -6 119 -17 199 -26 163 -17 248 -28 254 -35 4 -4 30 -158 41 -244 3
-27 12 -72 20 -100 7 -27 23 -88 35 -135 12 -47 27 -99 34 -115 8 -17 17 -46
21 -65 4 -19 16 -47 27 -62 17 -24 24 -27 61 -23 23 2 112 12 197 20 167 18
355 46 460 70 36 8 85 17 110 21 25 3 62 12 83 20 20 8 51 14 67 14 48 0 56
39 19 91 -10 15 -19 33 -19 41 0 8 -4 18 -9 23 -21 22 -86 219 -117 355 -21
93 -31 431 -15 535 34 224 76 356 174 548 47 92 115 203 142 233 5 7 25 31 44
55 38 48 197 208 249 251 62 51 257 175 317 202 33 15 69 32 79 37 24 14 115
45 186 65 186 52 404 79 555 69 146 -10 371 -55 453 -91 18 -8 38 -14 44 -14
7 0 30 -9 52 -19 92 -43 172 -83 191 -94 185 -111 346 -248 465 -395 19 -24
40 -49 45 -55 10 -12 34 -46 65 -93 8 -12 30 -47 48 -78 18 -31 36 -56 40 -56
12 0 266 253 375 372 49 53 116 132 150 175 35 44 68 86 75 93 41 49 92 119
92 128 0 41 -318 390 -449 492 -68 53 -85 82 -61 106 19 19 250 489 250 508
-1 18 -71 73 -168 131 -10 5 -40 24 -69 42 -28 18 -60 36 -70 40 -10 3 -29 15
-42 25 -33 25 -77 24 -92 -3 -6 -12 -34 -52 -62 -89 -29 -37 -101 -134 -160
-214 -59 -81 -114 -149 -122 -152 -8 -3 -42 7 -77 24 -124 58 -352 128 -542
167 -65 13 -123 28 -127 32 -11 11 -26 190 -35 413 -5 136 -11 185 -21 196 -9
9 -36 14 -72 14 -32 0 -132 3 -222 6 -130 5 -167 3 -181 -7z"/>
<path d="M4974 4817 c-2 -7 -3 -58 -2 -113 l3 -99 48 -3 47 -3 0 -466 0 -466
158 6 c173 6 234 20 323 77 110 71 198 208 219 340 5 36 10 217 10 403 l0 338
-117 -3 -118 -3 -5 -371 -5 -371 -30 -49 c-31 -49 -106 -109 -151 -120 -56
-14 -54 -33 -54 461 l0 455 -160 0 c-124 0 -162 -3 -166 -13z"/>
<path d="M5890 4460 l0 -370 -45 0 -45 0 0 -117 0 -118 42 0 43 0 3 -93 3 -93
117 3 117 3 3 85 c2 52 8 87 15 92 7 4 55 8 108 8 72 0 100 -4 108 -14 8 -9
11 -44 10 -93 l-2 -78 114 0 114 0 3 325 c4 379 -4 459 -54 559 -59 117 -189
224 -312 256 -37 10 -106 15 -199 15 l-143 0 0 -370z m326 114 c42 -20 111
-94 132 -142 12 -28 16 -73 16 -187 l1 -150 -117 -3 -118 -3 0 251 0 250 26 0
c14 0 41 -7 60 -16z"/>
<path d="M6550 4716 l0 -115 48 -3 47 -3 3 -462 2 -463 115 0 115 0 0 460 0
460 33 0 c41 0 115 -45 150 -92 55 -71 57 -91 57 -474 l0 -354 115 0 115 0 0
460 0 460 30 0 c62 0 145 -63 186 -140 17 -32 19 -69 24 -405 l5 -370 115 0
115 0 0 365 c0 326 -2 372 -19 433 -36 133 -139 250 -276 316 l-75 36 -167 4
-168 3 0 -31 c0 -36 1 -36 -48 -15 -86 37 -135 44 -329 44 l-193 0 0 -114z"/>
<path d="M7958 4463 l-3 -368 -48 -3 -48 -3 3 -117 c3 -117 3 -117 27 -114 13
2 34 1 47 -2 23 -6 24 -10 24 -96 l0 -90 115 0 115 0 0 89 c0 72 3 90 16 95
20 8 188 8 208 0 13 -5 16 -23 16 -95 l0 -89 115 0 115 0 0 368 c0 400 -4 435
-58 536 -34 64 -132 163 -198 198 -83 45 -153 58 -306 58 l-138 0 -2 -367z
m345 97 c60 -38 103 -98 117 -164 6 -29 9 -108 8 -177 l-3 -124 -117 -3 -118
-3 0 251 0 250 33 0 c19 0 52 -12 80 -30z"/>
<path d="M8953 4815 c-108 -34 -212 -133 -253 -242 -19 -50 -23 -85 -27 -253
-7 -236 5 -340 46 -425 118 -239 434 -293 631 -109 46 43 97 128 115 192 6 22
6 22 -113 22 l-120 0 -39 -39 c-43 -43 -102 -65 -151 -55 -45 9 -109 68 -122
112 -7 23 -10 118 -8 257 3 212 4 221 26 253 60 83 190 96 254 25 39 -43 50
-101 50 -260 l-1 -153 120 0 119 0 0 133 c-1 249 -26 340 -119 436 -50 51
-108 87 -176 108 -51 16 -178 15 -232 -2z"/>
<path d="M9580 4460 l0 -370 -50 0 -51 0 3 -117 c3 -118 3 -118 27 -115 13 2
34 1 47 -2 23 -6 24 -10 24 -96 l0 -90 115 0 115 0 0 89 c0 72 3 90 16 95 20
8 188 8 208 0 13 -5 16 -23 16 -95 l0 -90 118 3 117 3 3 315 c2 185 -2 350 -8
400 -20 158 -101 285 -236 370 -90 57 -151 70 -321 70 l-143 0 0 -370z m323
114 c54 -27 106 -85 127 -141 17 -45 20 -78 20 -199 l0 -145 -117 3 -118 3 -3
248 -2 247 30 0 c17 0 45 -7 63 -16z"/>
<path d="M10227 4823 c-4 -3 -7 -55 -7 -115 l0 -108 50 0 50 0 0 -465 0 -465
115 0 115 0 0 185 0 185 78 0 78 0 96 -182 95 -183 117 -3 c83 -2 116 1 116 9
0 6 -46 100 -102 209 l-102 197 62 57 c42 40 72 79 94 124 31 62 33 73 33 172
0 87 -4 113 -22 152 -46 99 -142 187 -240 220 -49 16 -91 18 -338 18 -155 0
-285 -3 -288 -7z m570 -240 c85 -40 116 -163 59 -238 -41 -53 -77 -65 -201
-65 l-105 0 0 153 c0 85 3 157 7 160 3 4 51 7 106 7 71 0 109 -5 134 -17z"/>
<path d="M11746 4805 c-73 -30 -147 -100 -184 -175 -23 -48 -27 -67 -27 -145
0 -114 24 -173 101 -245 66 -62 120 -88 214 -99 71 -9 90 -18 122 -56 23 -26
23 -98 2 -131 -32 -49 -58 -54 -259 -54 l-185 0 0 -115 0 -115 178 0 c267 0
338 18 426 106 135 134 135 354 0 488 -57 57 -112 83 -214 101 -65 11 -90 21
-112 42 -36 34 -45 81 -24 125 30 63 51 68 265 68 l191 0 0 115 0 115 -217 0
c-208 0 -221 -2 -277 -25z"/>
<path d="M12818 4463 l-3 -368 -48 -3 -48 -3 3 -117 c3 -117 3 -117 27 -114
13 2 34 1 47 -2 23 -6 24 -10 24 -96 l0 -90 115 0 115 0 0 89 c0 72 3 90 16
95 20 8 188 8 208 0 13 -5 16 -23 16 -95 l0 -89 115 0 115 0 0 368 c0 400 -4
435 -58 536 -34 64 -132 163 -198 198 -83 45 -153 58 -306 58 l-138 0 -2 -367z
m345 97 c60 -38 103 -98 117 -164 6 -29 9 -108 8 -177 l-3 -124 -117 -3 -118
-3 0 251 0 250 33 0 c19 0 52 -12 80 -30z"/>
<path d="M14195 4816 c-96 -30 -168 -83 -220 -161 -57 -86 -66 -128 -72 -335
-9 -316 15 -420 124 -528 69 -68 125 -97 213 -111 158 -26 321 45 402 175 20
31 58 124 58 141 0 2 -54 3 -120 3 l-120 0 -35 -39 c-47 -52 -114 -70 -171
-46 -53 22 -92 61 -104 104 -5 20 -10 129 -10 242 0 196 1 208 23 250 33 63
85 91 160 86 46 -3 63 -9 87 -32 53 -51 65 -101 65 -273 l0 -152 118 0 117 0
0 138 c-1 75 -5 167 -9 204 -21 160 -127 288 -279 333 -57 18 -173 18 -227 1z"/>
<path d="M12407 3880 c-31 -25 -50 -78 -41 -116 16 -71 101 -112 162 -80 44
23 62 54 62 107 0 40 -5 53 -31 78 -26 26 -38 31 -78 31 -33 0 -56 -6 -74 -20z"/>
<path d="M13584 3866 c-29 -29 -34 -41 -34 -81 0 -38 5 -52 28 -75 78 -78 202
-25 202 86 0 28 -8 44 -34 70 -29 29 -41 34 -81 34 -40 0 -52 -5 -81 -34z"/>
</g>
</svg>
